<svg height="512" viewBox="0 0 64 64" width="512" xmlns="http://www.w3.org/2000/svg"><g id="science_calculator" data-name="science calculator"><path d="m52 4h-40a1 1 0 0 0 -1 1v54a1 1 0 0 0 1 1h40a1 1 0 0 0 1-1v-54a1 1 0 0 0 -1-1zm-31 51a3 3 0 0 1 -3 3h-2a3 3 0 0 1 -3-3v-2a3 3 0 0 1 3-3h2a3 3 0 0 1 3 3zm0-9a3 3 0 0 1 -3 3h-2a3 3 0 0 1 -3-3v-2a3 3 0 0 1 3-3h2a3 3 0 0 1 3 3zm0-9a3 3 0 0 1 -3 3h-2a3 3 0 0 1 -3-3v-2a3 3 0 0 1 3-3h2a3 3 0 0 1 3 3zm0-9a3 3 0 0 1 -3 3h-2a3 3 0 0 1 -3-3v-2a3 3 0 0 1 3-3h2a3 3 0 0 1 3 3zm10 27a3 3 0 0 1 -3 3h-2a3 3 0 0 1 -3-3v-2a3 3 0 0 1 3-3h2a3 3 0 0 1 3 3zm0-9a3 3 0 0 1 -3 3h-2a3 3 0 0 1 -3-3v-2a3 3 0 0 1 3-3h2a3 3 0 0 1 3 3zm0-9a3 3 0 0 1 -3 3h-2a3 3 0 0 1 -3-3v-2a3 3 0 0 1 3-3h2a3 3 0 0 1 3 3zm0-9a3 3 0 0 1 -3 3h-2a3 3 0 0 1 -3-3v-2a3 3 0 0 1 3-3h2a3 3 0 0 1 3 3zm10 27a3 3 0 0 1 -3 3h-2a3 3 0 0 1 -3-3v-2a3 3 0 0 1 3-3h2a3 3 0 0 1 3 3zm0-9a3 3 0 0 1 -3 3h-2a3 3 0 0 1 -3-3v-2a3 3 0 0 1 3-3h2a3 3 0 0 1 3 3zm0-9a3 3 0 0 1 -3 3h-2a3 3 0 0 1 -3-3v-2a3 3 0 0 1 3-3h2a3 3 0 0 1 3 3zm0-9a3 3 0 0 1 -3 3h-2a3 3 0 0 1 -3-3v-2a3 3 0 0 1 3-3h2a3 3 0 0 1 3 3zm10 29a1 1 0 0 1 -1 1h-6a1 1 0 0 1 -1-1v-6a1 1 0 0 1 1-1h6a1 1 0 0 1 1 1zm0-11a3 3 0 0 1 -3 3h-2a3 3 0 0 1 -3-3v-2a3 3 0 0 1 3-3h2a3 3 0 0 1 3 3zm0-9a3 3 0 0 1 -3 3h-2a3 3 0 0 1 -3-3v-2a3 3 0 0 1 3-3h2a3 3 0 0 1 3 3zm0-9a3 3 0 0 1 -3 3h-2a3 3 0 0 1 -3-3v-2a3 3 0 0 1 3-3h2a3 3 0 0 1 3 3zm0-10a3 3 0 0 1 -3 3h-32a3 3 0 0 1 -3-3v-9a3 3 0 0 1 3-3h32a3 3 0 0 1 3 3z"/><path d="m48 8h-32a1 1 0 0 0 -1 1v9a1 1 0 0 0 1 1h32a1 1 0 0 0 1-1v-9a1 1 0 0 0 -1-1zm-29 4h-2v-2h2zm12 5a1 1 0 0 1 -1 1h-4a1 1 0 0 1 -1-1v-6a1 1 0 0 1 1-1h4a1 1 0 0 1 1 1zm8 0a1 1 0 0 1 -1 1h-4a1 1 0 0 1 -1-1v-6a1 1 0 0 1 1-1h4a1 1 0 0 1 1 1zm8 0a1 1 0 0 1 -1 1h-4a1 1 0 0 1 -1-1v-6a1 1 0 0 1 1-1h4a1 1 0 0 1 1 1z"/><path d="m45 52h4v4h-4z"/><rect height="4" rx="1" width="4" x="45" y="34"/><rect height="4" rx="1" width="4" x="35" y="34"/><rect height="4" rx="1" width="4" x="25" y="34"/><rect height="4" rx="1" width="4" x="15" y="34"/><rect height="4" rx="1" width="4" x="45" y="25"/><rect height="4" rx="1" width="4" x="35" y="25"/><rect height="4" rx="1" width="4" x="25" y="25"/><rect height="4" rx="1" width="4" x="15" y="25"/><rect height="4" rx="1" width="4" x="45" y="43"/><rect height="4" rx="1" width="4" x="35" y="43"/><rect height="4" rx="1" width="4" x="25" y="43"/><rect height="4" rx="1" width="4" x="15" y="43"/><rect height="4" rx="1" width="4" x="35" y="52"/><rect height="4" rx="1" width="4" x="25" y="52"/><rect height="4" rx="1" width="4" x="15" y="52"/><path d="m43 12h2v4h-2z"/><path d="m35 12h2v4h-2z"/><path d="m27 12h2v4h-2z"/></g></svg>